Coordinates
version=1
nRows=8
nColumns=40
inDegrees=yes

Units are S.I. units (second, meters, Newtons, ...)
Angles are in degrees.

endheader
time	pelvis_tilt	pelvis_list	pelvis_rotation	pelvis_tx	pelvis_ty	pelvis_tz	hip_flexion_r	hip_adduction_r	hip_rotation_r	knee_angle_r	knee_angle_r_beta	ankle_angle_r	subtalar_angle_r	mtp_angle_r	hip_flexion_l	hip_adduction_l	hip_rotation_l	knee_angle_l	knee_angle_l_beta	ankle_angle_l	subtalar_angle_l	mtp_angle_l	lumbar_extension	lumbar_bending	lumbar_rotation	arm_flex_r	arm_add_r	arm_rot_r	elbow_flex_r	pro_sup_r	wrist_flex_r	wrist_dev_r	arm_flex_l	arm_add_l	arm_rot_l	elbow_flex_l	pro_sup_l	wrist_flex_l	wrist_dev_l
     50.73000000	     -6.68821553	     -5.33940214	      1.37384946	      0.94042836	      0.92166990	      0.44514611	      2.52052974	      0.40356286	    -14.33987323	     21.56121118	     21.56121118	     16.62229515	      3.33778695	     -5.33693983	     28.92706474	     -5.73588116	     -0.64287432	     24.59022147	     24.59022147	      6.04111057	    -13.43692041	      4.79245749	     -8.60861224	      5.59731496	      4.54769712	     33.07404671	    -14.87603871	     -2.80485177	     84.92426013	     45.12997837	      0.00000000	      0.00000000	     -5.76939468	     -8.95021394	      2.68536642	     30.71014828	     45.16617688	      0.00000000	      0.00000000
     50.74285714	     -6.68619281	     -5.25508415	      1.10694941	      0.94050248	      0.92254370	      0.44285105	      3.63318492	     -0.28825648	    -14.01507596	     24.39262339	     24.39262339	     16.03306300	      2.53702285	     -6.17114728	     28.36248741	     -5.67231218	     -1.12351072	     24.56401380	     24.56401380	      6.64810746	    -13.16071930	      4.46821457	     -8.66843002	      5.39065882	      4.64822971	     31.33163830	    -14.92491271	     -2.49916075	     83.51863301	     45.15951363	      0.00000000	      0.00000000	     -4.54233509	     -9.16208739	      2.47253327	     31.26699992	     45.22164881	      0.00000000	      0.00000000
     50.75571429	     -6.72527393	     -5.21950170	      0.83565948	      0.94033431	      0.92324868	      0.44071423	      5.03349039	     -0.92321769	    -13.55180664	     27.57853988	     27.57853988	     15.15781187	      1.38116837	     -7.19424444	     27.86148767	     -5.69004053	     -1.67098911	     24.53501224	     24.53501224	      7.21395742	    -12.69776133	      4.05766806	     -8.67825762	      5.23096131	      4.74630550	     29.63948443	    -14.89025131	     -2.21818327	     81.68072846	     45.20377928	      0.00000000	      0.00000000	     -3.25715054	     -9.36258668	      2.27435338	     31.80330476	     45.27532562	      0.00000000	      0.00000000
     50.76857143	     -6.72572683	     -5.17073404	      0.55407192	      0.94006609	      0.92383499	      0.43869901	      6.60269783	     -1.56625525	    -13.01356065	     31.06279254	     31.06279254	     14.07863142	      0.00031610	     -8.22841787	     27.33723409	     -5.72390820	     -2.31487690	     24.52935299	     24.52935299	      7.75493737	    -12.13612948	      3.58903119	     -8.71673659	      5.09522947	      4.75201912	     28.00148911	    -14.73987637	     -1.91443932	     79.70478970	     45.25155749	      0.00000000	      0.00000000	     -1.93500666	     -9.60626989	      2.09936356	     32.33549028	     45.32491492	      0.00000000	      0.00000000
     50.78142857	     -6.78408170	     -5.24198505	      0.26585412	      0.93957327	      0.92423098	      0.43693756	      8.29904242	     -1.93192002	    -12.19418855	     34.38968387	     34.38968387	     11.69955685	     -2.43143252	    -12.06716737	     26.93182496	     -5.96350867	     -3.13060097	     24.58278328	     24.58278328	      8.19250435	    -11.16275211	      2.60306094	     -8.62990055	      5.02870694	      3.84609936	     27.47229227	    -13.83517193	     -1.08038845	     75.07520560	     45.36956661	      0.00000000	      0.00000000	     -1.07582886	     -9.82756050	      1.37051415	     32.94993935	     45.47198453	      0.00000000	      0.00000000
     50.79428571	     -6.76908305	     -5.23139274	     -0.02717859	      0.93896560	      0.92457014	      0.43530487	     10.21352694	     -2.42658573	    -11.50162045	     38.27301887	     38.27301887	     10.25355231	     -4.38085046	    -12.45564006	     26.47723099	     -6.09992375	     -3.89015609	     24.69530550	     24.69530550	      8.72605844	    -10.41900404	      2.04428984	     -8.73467398	      4.88618853	      4.04946524	     25.78992960	    -13.85976762	     -0.66863219	     72.96365359	     45.41623391	      0.00000000	      0.00000000	      0.37129762	    -10.17770223	      1.08831560	     33.68109304	     45.54075359	      0.00000000	      0.00000000
     50.80714286	     -6.70167621	     -5.22372034	     -0.30625908	      0.93823305	      0.92485145	      0.43379905	     12.19043024	     -2.84982948	    -10.74248192	     42.22257887	     42.22257887	      8.83748646	     -6.28732168	    -12.36356681	     26.00992907	     -6.27018383	     -4.69793508	     24.87541257	     24.87541257	      9.29223280	     -9.48380483	      1.40030095	     -8.88525010	      4.74277920	      3.84744388	     24.47624360	    -13.55059183	     -0.20696060	     70.07201490	     45.48635907	      0.00000000	      0.00000000	      1.73247833	    -10.54160379	      0.87802050	     34.25383158	     45.60151652	      0.00000000	      0.00000000
     50.82000000	     -6.68024670	     -5.08403682	     -0.55639351	      0.93740847	      0.92496896	      0.43219796	     14.30379696	     -3.48118368	    -10.18501461	     46.20705031	     46.20705031	      7.54655911	     -7.71673652	    -12.11203074	     25.52769826	     -6.20591585	     -5.32146069	     24.91003920	     24.91003920	      9.75400884	     -9.00654885	      1.05025567	     -8.99892675	      4.48581557	      3.60247713	     22.73263944	    -13.37672643	      0.18754558	     68.24571325	     45.52362849	      0.00000000	      0.00000000	      3.16876253	    -10.93894551	      0.74573718	     34.84445907	     45.64453626	      0.00000000	      0.00000000
